<?xml version="1.0" standalone="no"?>
<!DOCTYPE svg PUBLIC "-//W3C//DTD SVG 20010904//EN"
 "http://www.w3.org/TR/2001/REC-SVG-20010904/DTD/svg10.dtd">
<svg version="1.0" xmlns="http://www.w3.org/2000/svg"
 width="279.000000pt" height="284.000000pt" viewBox="0 0 279.000000 284.000000"
 preserveAspectRatio="xMidYMid meet">

<g transform="translate(0.000000,284.000000) scale(0.100000,-0.100000)"
 fill="#ee2e5d" stroke="none">
<path d="M855 2683 c-364 -78 -651 -365 -726 -728 -17 -83 -19 -149 -19 -901
0 -617 3 -813 12 -822 9 -9 218 -12 878 -12 964 0 955 0 1123 70 216 90 384
250 487 465 87 181 99 273 99 705 0 426 -13 526 -95 699 -56 118 -113 199
-202 282 -111 105 -223 173 -362 217 -121 39 -170 42 -654 41 -378 0 -485 -4
-541 -16z m1185 -643 c20 -20 21 -29 18 -508 -3 -478 -3 -488 -25 -528 -31
-59 -93 -110 -154 -128 -69 -21 -76 -20 -104 9 l-25 24 0 549 c0 665 -16 602
156 602 101 0 116 -2 134 -20z m-1000 -150 c19 -19 20 -33 20 -505 0 -581 16
-525 -150 -525 -105 0 -112 1 -136 25 l-25 25 3 486 c3 467 4 486 22 500 14
10 51 14 133 14 100 0 115 -2 133 -20z m504 -152 c14 -19 16 -77 16 -430 0
-492 15 -448 -150 -448 -105 0 -112 1 -136 25 l-25 25 3 411 c3 393 4 411 22
425 15 10 52 14 137 14 110 0 119 -1 133 -22z"/>
</g>
</svg>
